<?xml version="1.0" encoding="UTF-8"?>
<!DOCTYPE svg PUBLIC "-//W3C//DTD SVG 1.0//EN" "http://www.w3.org/TR/2001/REC-SVG-20010904/DTD/svg10.dtd">
<!-- Creator: CorelDRAW X7 -->
<svg xmlns="http://www.w3.org/2000/svg" xml:space="preserve" width="16.9333mm" height="15.0512mm" version="1.0" style="shape-rendering:geometricPrecision; text-rendering:geometricPrecision; image-rendering:optimizeQuality; fill-rule:evenodd; clip-rule:evenodd"
viewBox="0 0 47 42"
 xmlns:xlink="http://www.w3.org/1999/xlink">
 <defs>
  <style type="text/css">
   <![CDATA[
    .fil0 {fill:black}
    .fil3 {fill:#39393B}
    .fil2 {fill:#C7E8ED}
    .fil1 {fill:#0096E1}
    .fil4 {fill:#FEFEFE}
   ]]>
  </style>
 </defs>
 <g id="Layer_x0020_1">
  <metadata id="CorelCorpID_0Corel-Layer"/>
  <g id="_2662185629312">
   <path class="fil0" d="M37 30l2 0 0 2 -3 0 1 -2zm-29 0l2 0 1 2 -3 0 0 -2zm27 0c0,0 -1,2 -1,3 0,0 -2,0 -3,0 -5,0 -10,0 -15,0 -1,0 -3,0 -3,0 0,-1 -1,-3 -1,-3 2,0 4,0 6,0 1,0 0,0 1,0 1,0 7,0 8,0 1,0 1,0 2,0l6 0zm10 0l0 1c-1,1 -2,2 -2,2 -1,1 0,1 0,1 1,0 1,-1 2,-1l0 2c-1,0 -2,1 -2,1 -1,1 0,1 0,1 1,0 1,-1 2,-1l0 1c-1,1 -2,2 -2,2 -1,1 0,1 0,1 1,0 1,-1 2,-1 0,2 -2,1 -3,1 0,0 -1,0 -2,-1 0,0 0,0 0,-1 0,0 1,0 1,0 1,1 2,0 0,-1 0,0 -1,-1 -1,-1l0 -1c0,0 1,0 1,0 1,1 1,0 1,0 0,-1 -1,-1 -1,-1 -1,-1 -1,-1 -1,-2 0,0 1,0 1,0 1,1 1,0 1,0 0,-1 -1,-1 -1,-1 -1,-1 -1,-1 -1,-1l3 0c0,0 -1,0 0,1 0,1 1,-1 2,-1zm-38 0c0,2 0,1 -1,2 0,0 -1,1 -1,1 0,1 0,1 1,1 0,0 0,0 0,0 1,0 1,-1 1,-1l0 2c0,0 -1,0 -1,0 0,1 -1,1 -1,1 0,1 0,1 1,1 0,0 1,-1 1,-1l0 1c0,1 -2,2 -2,2 0,1 0,1 1,1 0,0 1,-1 1,-1 0,2 -1,1 -2,1 -1,0 -1,0 -2,0 -1,-1 -1,-1 -1,-2 1,0 1,0 2,0 0,1 1,0 0,0 0,-1 -1,-2 -2,-2l0 -1c1,0 1,0 2,0 0,1 1,0 0,0 0,-1 -2,-2 -2,-2l0 -1c1,0 1,0 1,0 1,1 2,0 1,0 0,-1 0,-1 -1,-1 -1,-1 -1,-1 -1,-1 1,0 1,0 2,0 0,0 1,0 1,0 0,0 0,0 0,1 0,0 0,0 1,0 0,0 1,-1 1,-1zm13 -5c0,0 5,0 6,0 1,0 2,0 2,1 0,1 0,3 -1,3 0,0 -5,0 -6,0 -1,0 -2,0 -2,-1 0,-2 0,-3 1,-3zm-6 1c1,-1 2,1 1,2 -1,0 -2,0 -2,-1 0,0 0,0 0,-1 0,0 0,0 1,0zm19 0c1,-1 2,2 0,2 -1,1 -2,-2 0,-2zm2 -1c1,0 2,0 2,0 1,0 1,-1 2,-1l5 0c1,0 1,1 1,2 0,1 0,2 -1,2 0,0 0,0 0,0 -2,0 -8,1 -9,0 1,-1 0,-2 0,-3zm-19 3c0,0 1,0 1,-1 0,-1 -1,-1 -1,-2l2 0 0 3 -2 0zm13 -3l2 0c0,1 -1,1 -1,2 0,1 1,1 1,1l-2 0 0 -3zm-26 3c0,0 0,0 -1,-2 0,-2 -1,-2 6,-2 1,0 1,1 1,1 1,0 2,0 3,0 0,1 0,1 0,2 0,1 0,1 0,1l-9 0zm37 -5c0,0 0,0 0,0 0,0 0,0 0,0 0,0 0,0 0,0 0,0 0,0 0,0zm-37 0c0,0 0,0 0,0l-1 0 0 0c1,0 1,0 1,0zm4 0c-1,0 -2,0 -3,0 1,0 0,0 0,-1 1,0 2,0 3,0 0,1 0,1 0,1zm35 0c0,0 0,0 0,-1 0,0 2,0 2,1 0,0 -1,0 -2,0zm-32 -9c1,0 4,0 5,0l20 0c1,0 3,0 3,2 0,0 0,4 0,5 0,1 1,1 0,2 0,0 -1,1 -1,1 -2,0 -4,0 -5,0 -1,0 -3,0 -4,0 0,0 -1,0 -1,0 -1,0 -7,0 -8,0 0,0 0,0 -1,0l-6 0c-1,0 -3,0 -3,-2 -1,0 0,-4 0,-4 0,-2 -1,-3 1,-4zm35 7c0,0 0,0 0,0 -1,0 -5,0 -5,0l0 -5c0,-1 -1,-3 -3,-3 -1,0 -4,0 -5,0 -4,0 -7,0 -11,0 -2,0 -10,0 -11,0 -1,0 -2,1 -3,3 0,1 0,4 0,5 -1,0 -3,0 -4,0 -1,0 -1,0 -1,-1 0,0 0,-1 0,-2 1,0 2,1 3,0 2,-2 1,-3 1,-4 1,-1 2,-2 3,-2 0,0 3,0 4,0 8,0 16,0 25,0 1,0 2,1 2,2 1,1 0,2 1,3 1,1 1,1 3,1 1,0 1,0 1,2 0,1 0,1 0,1zm-2 -11c0,0 0,0 1,0 1,0 1,-1 2,0 0,0 0,1 0,2 -1,0 -2,0 -3,0 0,-1 0,-1 0,-2zm-42 0c3,-1 3,-1 3,0 0,1 0,1 0,2 -1,0 -1,0 -1,0 -1,0 -2,0 -2,-1l0 -1zm9 1c0,-1 0,-4 1,-5 0,-3 -1,-2 2,-2l22 0c1,0 1,0 1,0l1 7 -3 0c0,0 -2,-2 -3,-2l-6 0c-1,0 -1,1 -1,1 1,1 5,0 5,0 1,0 2,0 2,1 -2,0 -6,0 -9,0 -1,0 -2,-2 -3,-2l-6 0c-1,0 -1,1 -1,1 0,1 4,0 5,0 1,0 2,0 2,1l-9 0zm-2 0c0,-1 0,-2 0,-3l1 -5c0,-1 0,-1 0,-1 1,0 29,0 29,0 0,0 0,0 0,1 0,1 0,2 1,2 0,2 0,4 0,6l-1 0c0,-1 0,-2 0,-3 0,-1 0,-2 0,-2 0,-1 0,-2 -1,-3 0,0 -1,-1 -2,-1l-23 0c-1,0 -2,1 -2,1 -1,1 -1,7 -1,8l-1 0zm-3 2c-1,0 -2,0 -1,0 1,-1 1,-1 1,-2 0,-2 0,-3 -2,-3 -3,0 -3,0 -3,3 0,2 1,2 3,2 0,2 0,1 2,2 0,1 0,2 -1,2 -1,0 -2,0 -3,0 0,1 0,2 0,3 0,1 -1,1 0,2 0,1 0,1 0,2 0,1 0,1 0,2 0,2 0,11 0,13 0,2 1,3 2,3 1,0 2,0 2,0 3,0 3,-1 3,-4 0,-1 0,-3 0,-4l4 -1c0,1 1,1 2,1l18 0c2,0 2,0 3,0 0,-1 1,-1 2,-1 0,0 1,0 2,0 0,2 -1,6 0,7 0,1 0,1 1,1 0,1 1,1 2,1 0,0 1,0 2,0 1,0 2,-1 2,-3 0,-2 0,-11 0,-13 0,-1 0,-1 0,-2 0,0 0,-1 0,-1 0,0 0,-1 0,-1 1,-1 0,-1 0,-2 0,-1 0,-2 0,-3 -1,0 -2,0 -3,0 -1,-1 -1,-1 -1,-2 0,0 1,0 2,0 1,-1 0,-2 1,-2 1,0 2,0 2,-2 0,-1 0,-3 -2,-3 -1,0 -3,0 -3,2 0,0 0,2 0,3 1,0 1,0 1,0 1,0 -1,0 -1,0 0,0 -1,0 -1,-1 0,0 0,0 0,-1l-2 -9c0,-2 -2,-2 -5,-2l-23 0c-2,0 -3,0 -3,1 -1,1 -1,5 -1,6 0,-2 0,-4 0,-6 0,0 0,0 0,-1 0,0 -1,0 -1,0 -1,0 0,2 0,3l0 8c0,1 0,2 -1,2z"/>
   <path class="fil1" d="M30 22c0,-1 0,-3 0,-4 0,-1 0,-2 0,-2 1,0 2,0 2,1l0 4c0,0 0,1 -1,2 0,0 -1,0 -1,-1zm-2 0c0,-1 0,-3 0,-4 0,-1 0,-2 0,-2 1,0 1,0 1,1l0 4c0,1 0,1 0,2 -1,0 -1,-1 -1,-1zm-3 0c0,-1 0,-3 0,-4 0,-1 0,-2 0,-2 1,0 2,0 2,1 0,0 0,3 0,4 0,1 0,1 -1,2 0,0 -1,-1 -1,-1zm-2 0l0 -4c0,-1 0,-2 0,-2 1,0 1,0 1,1 0,0 0,3 0,4 0,1 0,1 0,2 -1,0 -1,-1 -1,-1zm-3 0l0 -4c0,-1 0,-2 1,-2 0,0 1,0 1,1l0 4c0,1 0,1 0,2 -1,0 -2,-1 -2,-1zm-2 0c0,-1 0,-3 0,-4 0,-1 0,-2 0,-2 1,0 1,0 2,1l0 4c0,1 0,1 -1,2 0,0 -1,-1 -1,-1zm-3 0c0,-1 0,-3 0,-4 0,-1 0,-2 1,-2 0,0 1,0 1,1 0,0 0,3 0,4 0,0 0,1 0,2 -1,0 -2,0 -2,-1zm-3 -7c1,0 2,1 3,2 0,2 -1,3 -2,4 -2,0 -3,-1 -4,-3 0,-1 1,-2 3,-3zm26 3c-1,2 -2,3 -4,3 -3,-1 -2,-6 1,-6 2,0 3,2 3,3zm-28 -4c-2,1 -1,2 -1,4 0,0 -1,4 0,4 0,2 2,2 3,2l6 0c1,0 1,0 1,0 1,0 7,0 8,0 0,0 1,0 1,0 1,0 3,0 4,0 1,0 3,0 5,0 0,0 1,-1 1,-1 1,-1 0,-1 0,-2 0,-1 0,-5 0,-5 0,-2 -2,-2 -3,-2l-20 0c-1,0 -4,0 -5,0z"/>
   <path class="fil2" d="M10 11l9 0c0,-1 -1,-1 -2,-1 -1,0 -5,1 -5,0 0,0 0,-1 1,-1l6 0c1,0 2,2 3,2 3,0 7,0 9,0 0,-1 -1,-1 -2,-1 0,0 -4,1 -5,0 0,0 0,-1 1,-1l6 0c1,0 3,2 3,2l3 0 -1 -7c0,0 0,0 -1,0l-22 0c-3,0 -2,-1 -2,2 -1,1 -1,4 -1,5z"/>
   <path class="fil1" d="M40 16l0 5c1,0 4,0 5,0 0,0 0,0 0,-1 0,-2 0,-2 -1,-2 -2,0 -2,0 -3,-1 -1,-1 0,-2 -1,-3 0,-1 -1,-2 -2,-2 -9,0 -17,0 -25,0 -1,0 -4,0 -4,0 -1,0 -2,1 -3,2 0,1 1,2 -1,4 -1,1 -2,0 -3,0 0,1 0,2 0,2 0,1 0,1 1,1 1,0 3,0 4,0 0,-1 0,-4 0,-5 1,-2 2,-3 3,-3 1,0 9,0 11,0 4,0 7,0 11,0 1,0 4,0 5,0 2,0 3,2 3,3z"/>
   <path class="fil3" d="M35 30l-6 0c-1,0 -1,0 -2,0 -1,0 -7,0 -8,0 -1,0 0,0 -1,0 -2,0 -4,0 -6,0 0,0 1,2 1,3 0,0 2,0 3,0 5,0 10,0 15,0 1,0 3,0 3,0 0,-1 1,-3 1,-3z"/>
   <path class="fil1" d="M8 11l1 0c0,-1 0,-7 1,-8 0,0 1,-1 2,-1l23 0c1,0 2,1 2,1 1,1 1,2 1,3 0,0 0,1 0,2 0,1 0,2 0,3l1 0c0,-2 0,-4 0,-6 -1,0 -1,-1 -1,-2 0,-1 0,-1 0,-1 0,0 -28,0 -29,0 0,0 0,0 0,1l-1 5c0,1 0,2 0,3z"/>
   <path class="fil3" d="M35 25c0,1 1,2 0,3 1,1 7,0 9,0 0,0 0,0 0,0 1,0 1,-1 1,-2 0,-1 0,-2 -1,-2l-5 0c-1,0 -1,1 -2,1 0,0 -1,0 -2,0z"/>
   <path class="fil3" d="M3 28l9 0c0,0 0,0 0,-1 0,-1 0,-1 0,-2 -1,0 -2,0 -3,0 0,0 0,-1 -1,-1 -7,0 -6,0 -6,2 1,2 1,2 1,2z"/>
   <path class="fil4" d="M20 25c-1,0 -1,1 -1,3 0,1 1,1 2,1 1,0 6,0 6,0 1,0 1,-2 1,-3 0,-1 -1,-1 -2,-1 -1,0 -6,0 -6,0z"/>
   <path class="fil3" d="M45 30c-1,0 -2,2 -2,1 -1,-1 0,-1 0,-1l-3 0c0,0 0,0 1,1 0,0 1,0 1,1 0,0 0,1 -1,0 0,0 -1,0 -1,0 0,1 0,1 1,2 0,0 1,0 1,1 0,0 0,1 -1,0 0,0 -1,0 -1,0l0 1c0,0 1,1 1,1 2,1 1,2 0,1 0,0 -1,0 -1,0 0,1 0,1 0,1 1,1 2,1 2,1 1,0 3,1 3,-1 -1,0 -1,1 -2,1 0,0 -1,0 0,-1 0,0 1,-1 2,-2l0 -1c-1,0 -1,1 -2,1 0,0 -1,0 0,-1 0,0 1,-1 2,-1l0 -2c-1,0 -1,1 -2,1 0,0 -1,0 0,-1 0,0 1,-1 2,-2l0 -1z"/>
   <path class="fil3" d="M7 30c0,0 -1,1 -1,1 -1,0 -1,0 -1,0 0,-1 0,-1 0,-1 0,0 -1,0 -1,0 -1,0 -1,0 -2,0 0,0 0,0 1,1 1,0 1,0 1,1 1,0 0,1 -1,0 0,0 0,0 -1,0l0 1c0,0 2,1 2,2 1,0 0,1 0,0 -1,0 -1,0 -2,0l0 1c1,0 2,1 2,2 1,0 0,1 0,0 -1,0 -1,0 -2,0 0,1 0,1 1,2 1,0 1,0 2,0 1,0 2,1 2,-1 0,0 -1,1 -1,1 -1,0 -1,0 -1,-1 0,0 2,-1 2,-2l0 -1c0,0 -1,1 -1,1 -1,0 -1,0 -1,-1 0,0 1,0 1,-1 0,0 1,0 1,0l0 -2c0,0 0,1 -1,1 0,0 0,0 0,0 -1,0 -1,0 -1,-1 0,0 1,-1 1,-1 1,-1 1,0 1,-2z"/>
   <path class="fil0" d="M35 17c1,-1 2,2 0,2 -1,1 -2,-2 0,-2zm3 1c0,-1 -1,-3 -3,-3 -3,0 -4,5 -1,6 2,0 3,-1 4,-3z"/>
   <path class="fil0" d="M11 18c-1,-2 2,-2 2,0 1,0 0,1 -1,1 0,1 -1,0 -1,-1zm1 -3c-2,1 -3,2 -3,3 1,2 2,3 4,3 1,-1 2,-2 2,-4 -1,-1 -2,-2 -3,-2z"/>
   <path class="fil0" d="M15 22c0,1 1,1 2,1 0,-1 0,-2 0,-2 0,-1 0,-4 0,-4 0,-1 -1,-1 -1,-1 -1,0 -1,1 -1,2 0,1 0,3 0,4z"/>
   <path class="fil0" d="M25 22c0,0 1,1 1,1 1,-1 1,-1 1,-2 0,-1 0,-4 0,-4 0,-1 -1,-1 -2,-1 0,0 0,1 0,2 0,1 0,3 0,4z"/>
   <path class="fil0" d="M18 22c0,0 1,1 1,1 1,-1 1,-1 1,-2l0 -4c-1,-1 -1,-1 -2,-1 0,0 0,1 0,2 0,1 0,3 0,4z"/>
   <path class="fil0" d="M23 22c0,0 0,1 1,1 0,-1 0,-1 0,-2 0,-1 0,-4 0,-4 0,-1 0,-1 -1,-1 0,0 0,1 0,2l0 4z"/>
   <path class="fil0" d="M30 22c0,1 1,1 1,1 1,-1 1,-2 1,-2l0 -4c0,-1 -1,-1 -2,-1 0,0 0,1 0,2 0,1 0,3 0,4z"/>
   <path class="fil0" d="M28 22c0,0 0,1 1,1 0,-1 0,-1 0,-2l0 -4c0,-1 0,-1 -1,-1 0,0 0,1 0,2 0,1 0,3 0,4z"/>
   <path class="fil0" d="M20 22c0,0 1,1 2,1 0,-1 0,-1 0,-2l0 -4c0,-1 -1,-1 -1,-1 -1,0 -1,1 -1,2l0 4z"/>
   <path class="fil4" d="M35 17c-2,0 -1,3 0,2 2,0 1,-3 0,-2z"/>
   <path class="fil4" d="M11 18c0,1 1,2 1,1 1,0 2,-1 1,-1 0,-2 -3,-2 -2,0z"/>
   <path class="fil3" d="M43 10c0,1 0,1 0,2 1,0 2,0 3,0 0,-1 0,-2 0,-2 -1,-1 -1,0 -2,0 -1,0 -1,0 -1,0z"/>
   <polygon class="fil3" points="36,32 39,32 39,30 37,30 "/>
   <polygon class="fil3" points="8,32 11,32 10,30 8,30 "/>
   <path class="fil3" d="M1 10l0 1c0,1 1,1 2,1 0,0 0,0 1,0 0,-1 0,-1 0,-2 0,-1 0,-1 -3,0z"/>
   <path class="fil4" d="M33 26c-2,0 -1,3 0,2 2,0 1,-3 0,-2z"/>
   <path class="fil4" d="M14 26c-1,0 -1,0 -1,0 0,1 0,1 0,1 0,1 1,1 2,1 1,-1 0,-3 -1,-2z"/>
   <path class="fil3" d="M16 28l2 0 0 -3 -2 0c0,1 1,1 1,2 0,1 -1,1 -1,1z"/>
   <path class="fil3" d="M29 28l2 0c0,0 -1,0 -1,-1 0,-1 1,-1 1,-2l-2 0 0 3z"/>
   <path class="fil3" d="M4 23c1,0 2,0 3,0 0,0 0,0 0,-1 -1,0 -2,0 -3,0 0,1 1,1 0,1z"/>
   <path class="fil3" d="M42 23c1,0 2,0 2,0 0,-1 -2,-1 -2,-1 0,1 0,1 0,1z"/>
   <path class="fil3" d="M45 21c-1,0 -4,0 -5,0l0 -5 0 5c0,0 4,0 5,0 0,0 0,0 0,0z"/>
   <path class="fil3" d="M2 23l1 0c0,0 0,0 0,0 0,0 0,0 -1,0l0 0z"/>
   <path class="fil3" d="M40 23c0,0 0,0 0,0 0,0 0,0 0,0 0,0 0,0 0,0 0,0 0,0 0,0z"/>
  </g>
 </g>
</svg>
